<svg xmlns="http://www.w3.org/2000/svg" xmlns:xlink="http://www.w3.org/1999/xlink" viewBox="0,0,256,256" width="480px" height="480px" fill-rule="nonzero"><g fill="none" fill-rule="nonzero" stroke="none" stroke-width="1" stroke-linecap="butt" stroke-linejoin="miter" stroke-miterlimit="10" stroke-dasharray="" stroke-dashoffset="0" font-family="none" font-weight="none" font-size="none" text-anchor="none" style="mix-blend-mode: normal"><g transform="scale(5.33333,5.33333)"><path d="M32,4v1h-6c-0.265,0 -0.52,0.105 -0.707,0.293l-18.707,18.707h-1.586v2c0,0.256 0.098,0.512 0.293,0.707l4.586,4.586c0.585,0.585 1.353,0.877 2.121,0.877c0.768,0 1.536,-0.292 2.121,-0.877l24.586,-24.586c0.191,-0.191 0.283,-0.447 0.284,-0.707h0.009v-2z" fill="#000000"></path><path d="M39.991,25.5h0.009v-2h-7v1h-6.5c-0.265,0 -0.52,0.105 -0.707,0.293l-9.207,9.207h-1.586v2h0.008c0.001,0.095 0.02,0.189 0.047,0.281c0.008,0.029 0.006,0.06 0.017,0.087c0.049,0.123 0.122,0.239 0.221,0.339l6.25,6.25l4.164,4.164c0.566,0.567 1.32,0.879 2.122,0.879h11.171c0.404,0 0.769,-0.244 0.924,-0.617c0.051,-0.124 0.067,-0.254 0.067,-0.383h0.009v-2h-1.586l-8.75,-8.75l10.043,-10.043c0.191,-0.191 0.283,-0.447 0.284,-0.707z" fill="#000000"></path><path d="M10.586,28.586l-4.586,-4.586l20,-20h12l-24.586,24.586c-0.781,0.781 -2.047,0.781 -2.828,0z" fill="#7952fa"></path><path d="M16,34l10.414,10.414c0.375,0.375 0.884,0.586 1.414,0.586h11.172l-16.5,-16.5z" fill="#7952fa"></path><path d="M12,30.17c-0.768,0 -1.536,-0.292 -2.121,-0.877l-4.586,-4.586c-0.391,-0.391 -0.391,-1.023 0,-1.414l20,-20c0.187,-0.188 0.442,-0.293 0.707,-0.293h12c0.404,0 0.769,0.244 0.924,0.617c0.155,0.374 0.069,0.804 -0.217,1.09l-24.586,24.586c-0.585,0.585 -1.353,0.877 -2.121,0.877zM7.414,24l3.879,3.879c0.39,0.39 1.024,0.39 1.414,0l22.879,-22.879h-9.172z" fill="#000000"></path><path d="M39,46h-11.171c-0.801,0 -1.555,-0.312 -2.122,-0.879l-10.414,-10.414c-0.198,-0.198 -0.304,-0.469 -0.292,-0.749c0.012,-0.28 0.14,-0.541 0.353,-0.722l6.5,-5.5c0.397,-0.336 0.986,-0.311 1.353,0.056l16.5,16.5c0.286,0.286 0.372,0.716 0.217,1.09c-0.155,0.374 -0.52,0.618 -0.924,0.618zM17.476,34.062l9.646,9.646c0.188,0.188 0.44,0.292 0.707,0.292h8.757l-14.143,-14.142z" fill="#000000"></path><path d="M16,34l10.5,-10.5h12.5l-16.75,16.75z" fill="#7952fa"></path><path d="M22.25,41.25c-0.256,0 -0.512,-0.098 -0.707,-0.293l-6.25,-6.25c-0.391,-0.391 -0.391,-1.023 0,-1.414l10.5,-10.5c0.187,-0.188 0.442,-0.293 0.707,-0.293h12.5c0.404,0 0.769,0.244 0.924,0.617c0.155,0.374 0.069,0.804 -0.217,1.09l-16.75,16.75c-0.195,0.195 -0.451,0.293 -0.707,0.293zM17.414,34l4.836,4.836l14.336,-14.336h-9.672z" fill="#000000"></path></g></g></svg>